<?xml version="1.0" encoding="UTF-8"?><svg version="1.1" viewBox="0 0 220 128" xmlns="http://www.w3.org/2000/svg" xmlns:xlink="http://www.w3.org/1999/xlink"><title>TLI Cycling Logo Black</title><path d="M8.42,58A105.63,105.63,0,0,0,2.34,77.33h47A69.41,69.41,0,0,1,56.74,58ZM118.26,19.47H68.15V32.91H84.07v41.3h18.27V32.91h15.92ZM162.1,60.94h-22V19.47H122.37V74.21H162.1Zm6.53-41.47h17.61V74.21H168.63ZM64.78.87a108.46,108.46,0,0,0-16.86,9.27L64.78,20.22Zm-32,21.57A108,108,0,0,0,16.44,42.6H63.09Zm10.07,105H77.93l1.32-2.3a46.93,46.93,0,0,1-19.34-10.32ZM.42,90.35C.17,93.4,0,96.48,0,99.61A106.83,106.83,0,0,0,3.84,128L49.91,99.05a38.84,38.84,0,0,1-1.6-8.7ZM69.76,51.22C59,67.57,56,84.43,63.35,97.2c13.47,23.38,56.68,24.13,96.51,1.67s61.19-59.66,47.72-83A32,32,0,0,0,194.35,3.49a2,2,0,0,1-.2-2.94c1.38-1.43,4.69.38,4.69.38a37.22,37.22,0,0,1,16.51,14.86c15.13,26.26-7.89,67.47-51.42,92S72.85,131,57.73,104.71c-9-15.56-4.54-36.38,9.62-55.85a1.79,1.79,0,0,1,2.33-.25c1.36.87.08,2.61.08,2.61m10.08,34.6A3.86,3.86,0,0,0,76.57,84c-2.28,0-3.83,2-3.83,4.56s1.56,4.5,3.89,4.5a4.09,4.09,0,0,0,3.21-1.75v5.14a9.34,9.34,0,0,1-3.29.77,7.42,7.42,0,0,1-5.39-2.43,8.72,8.72,0,0,1-2.3-6.24,9.38,9.38,0,0,1,2.11-6,7.32,7.32,0,0,1,5.47-2.68,7.82,7.82,0,0,1,3.4.83v5.15Zm.8-.27h4l2.62,5.77,2.54-5.77h3.94l-7.82,16.86H82l3.33-7.15Zm20.91,3.67a2.77,2.77,0,0,0-1.78-.79,2.53,2.53,0,0,0-2.38,2.73,2.42,2.42,0,0,0,4.16,2v3.37a4.71,4.71,0,0,1-2.43.64c-2.9,0-5.31-2.49-5.31-5.87,0-3.62,2.4-6.11,5.46-6.11a4.19,4.19,0,0,1,2.28.65Zm2.15-10.61h3.47V96.8H103.7Zm9.42,2.63A2,2,0,1,1,111.18,79a2.11,2.11,0,0,1,1.94,2.23m-.21,15.56h-3.46V85.55h3.46Zm5.75-9.8h0a3.24,3.24,0,0,1,3.12-1.81c2.62,0,3.66,1.9,3.66,4.65v7H122V91.32c0-1.08.15-3-1.57-3-1.41,0-1.8,1.2-1.8,2.61V96.8h-3.47V85.55h3.47Zm19.82,8.7c0,4.77-2.06,6.71-5.65,6.71-2.24,0-5.25-1.33-5.56-4.3h3.89a1.27,1.27,0,0,0,.65.85,2,2,0,0,0,1,.28c1.86,0,2.22-1.41,2.22-3.23v-.52a3.82,3.82,0,0,1-3.1,1.53c-2.85,0-4.82-2.51-4.82-5.75s2-6.08,5-6.08A3.17,3.17,0,0,1,135,86.74h0V85.55h3.46V95.7Zm-7.8-4.61a2.25,2.25,0,1,0,4.46,0,2.25,2.25,0,1,0-4.46,0"/></svg>